# xmcd CD database file
#
# Track frame offsets:
#	150
#	9477
#	34640
#	55085
#	68110
#	92352
#	118155
#	136685
#	144967
#	169987
#	192607
#	205982
#
# Disc length: 3061 seconds
#
# Revision: 2
# Processed by: cddbd v1.5PL3 Copyright (c) Steve Scherf et al.
# Submitted via: CDex 1.40Release
#
DISCID=a20bf30c
DTITLE=GLAY - GLAY SONG BOOK
DYEAR=1998
DGENRE=Classic Rock
TTITLE0=月に祈る -#1-
TTITLE1=Freeze My Love -orchestra-
TTITLE2=春を愛する人 -orchestra-
TTITLE3=However- 回想のテーマ-
TTITLE4=都忘れ -orchestra-
TTITLE5=Yes，Summerdays -orchestra-
TTITLE6=Innocence -orchestra-
TTITLE7=月に祈る -#2-
TTITLE8=However -orchestra-
TTITLE9=Troubles On Monday -orchestra-
TTITLE10=Miki Piano -別れのテーマ-
TTITLE11=月に祈る -orchestra-
EXTD=YEAR: 1998 ID3G: 1
EXTT0=
EXTT1=
EXTT2=
EXTT3=
EXTT4=
EXTT5=
EXTT6=
EXTT7=
EXTT8=
EXTT9=
EXTT10=
EXTT11=
PLAYORDER=
